<?xml version="1.0" encoding="utf-8"?>
<!-- Generator: Adobe Illustrator 26.2.1, SVG Export Plug-In . SVG Version: 6.00 Build 0)  -->
<svg version="1.1" id="Laag_1" xmlns="http://www.w3.org/2000/svg" xmlns:xlink="http://www.w3.org/1999/xlink" x="0px" y="0px"
	 viewBox="0 0 289.1 476" style="enable-background:new 0 0 289.1 476;" xml:space="preserve">
<style type="text/css">
	.st0{fill:#FFFFFF;}
</style>
<path class="st0" d="M267.5,412.2c-30-29.9-60-59.9-90.2-90c-28.5-28.4-57-56.9-85.7-85.5c28-27.9,56-55.9,84.1-83.9
	c30.3-30.3,60.6-60.5,90.9-90.7l7.1-7.1l-7.1-7.1c-4.1-4.1-8.2-8.2-12.3-12.2c-3.9-3.8-7.7-7.6-11.2-11.2l-7.1-7.1l-8.1,8.1
	C160.1,93.2,90,163.2,21.6,231.3l-7.1,7.1l220.6,220.2l7.1-7.1c7.9-7.9,16-16,25.3-25.2l7.2-7.1L267.5,412.2z"/>
</svg>
